HIERARCHY
ROOT root
{
	OFFSET 0.000000 0.000000 0.000000
	CHANNELS 6 Xposition Yposition Zposition Zrotation Yrotation Xrotation
	JOINT lhip
	{
		OFFSET 0.058581 -0.082280 -0.017664
		CHANNELS 3 Zrotation Yrotation Xrotation
		JOINT lknee
		{
			OFFSET 0.043451 -0.386469 0.008037
			CHANNELS 3 Zrotation Yrotation Xrotation
			JOINT lankle
			{
				OFFSET -0.014790 -0.426874 -0.037428
				CHANNELS 3 Zrotation Yrotation Xrotation
				JOINT ltoe
				{
					OFFSET 0.041054 -0.060286 0.122042
					CHANNELS 3 Zrotation Yrotation Xrotation
					End Site
					{
						OFFSET 0.000000 0.000000 0.000000
					}
				}
			}
		}
	}
	JOINT rhip
	{
		OFFSET -0.060310 -0.090513 -0.013543
		CHANNELS 3 Zrotation Yrotation Xrotation
		JOINT rknee
		{
			OFFSET -0.043257 -0.383688 -0.004843
			CHANNELS 3 Zrotation Yrotation Xrotation
			JOINT rankle
			{
				OFFSET 0.019056 -0.420046 -0.034562
				CHANNELS 3 Zrotation Yrotation Xrotation
				JOINT rtoe
				{
					OFFSET -0.034840 -0.062106 0.130323
					CHANNELS 3 Zrotation Yrotation Xrotation
					End Site
					{
						OFFSET 0.000000 0.000000 0.000000
					}
				}
			}
		}
	}
	JOINT lowerback
	{
		OFFSET 0.004439 0.124404 -0.038385
		CHANNELS 3 Zrotation Yrotation Xrotation
		JOINT upperback
		{
			OFFSET 0.004488 0.137956 0.026820
			CHANNELS 3 Zrotation Yrotation Xrotation
			JOINT chest
			{
				OFFSET -0.002265 0.056032 0.002855
				CHANNELS 3 Zrotation Yrotation Xrotation
				JOINT lowerneck
				{
					OFFSET -0.013390 0.211636 -0.033468
					CHANNELS 3 Zrotation Yrotation Xrotation
					JOINT upperneck
					{
						OFFSET 0.010113 0.088937 0.050410
						CHANNELS 3 Zrotation Yrotation Xrotation
						End Site
						{
							OFFSET 0.000000 0.000000 0.000000
						}
					}
				}
				JOINT lclavicle
				{
					OFFSET 0.071702 0.114000 -0.018898
					CHANNELS 3 Zrotation Yrotation Xrotation
					JOINT lshoulder
					{
						OFFSET 0.122921 0.045205 -0.019046
						CHANNELS 3 Zrotation Yrotation Xrotation
						JOINT lelbow
						{
							OFFSET 0.255332 -0.015649 -0.022946
							CHANNELS 3 Zrotation Yrotation Xrotation
							JOINT lwrist
							{
								OFFSET 0.265709 0.012698 -0.007375
								CHANNELS 3 Zrotation Yrotation Xrotation
								End Site
								{
									OFFSET 0.000000 0.000000 0.000000
								}
							}
						}
					}
				}
				JOINT rclavicle
				{
					OFFSET -0.082954 0.112472 -0.023707
					CHANNELS 3 Zrotation Yrotation Xrotation
					JOINT rshoulder
					{
						OFFSET -0.113228 0.046853 -0.008472
						CHANNELS 3 Zrotation Yrotation Xrotation
						JOINT relbow
						{
							OFFSET -0.260127 -0.014369 -0.031269
							CHANNELS 3 Zrotation Yrotation Xrotation
							JOINT rwrist
							{
								OFFSET -0.269108 0.006794 -0.006027
								CHANNELS 3 Zrotation Yrotation Xrotation
								End Site
								{
									OFFSET 0.000000 0.000000 0.000000
								}
							}
						}
					}
				}
			}
		}
	}
}
MOTION
Frames: 14
Frame Time: 0.033333
0.836999 0.268553 0.987325 90.232162 -1.750709 80.757690 -5.158421 -0.171132 -1.542972 -5.920401 -7.714611 16.154367 10.057396 9.937675 -9.504638 0.000000 -0.000000 0.000000 -3.853943 -4.047318 -5.023471 1.927142 -1.207887 61.927382 2.680280 -9.470366 0.858763 0.000000 -0.000000 0.000000 -0.783850 1.563498 12.262838 1.243211 1.320154 -2.108654 -1.418802 -0.423913 3.111859 3.585548 2.371382 -5.567443 -4.371153 0.210552 10.996284 -30.822016 6.304693 -0.601994 -52.469581 -2.847817 7.898327 5.590221 -25.827731 9.629075 -5.243026 0.902563 -2.188790 32.830904 0.016126 -1.734841 49.040978 7.838837 13.828813 -12.823132 21.287177 -11.389807 6.338716 1.196219 -1.315378 
0.875612 0.269940 0.991795 92.095372 -1.024454 79.976980 -4.433484 1.090187 2.540818 -5.849244 -10.010802 14.664182 9.407054 9.568650 -10.918850 0.000000 -0.000000 0.000000 -3.583146 -4.206838 -8.946934 1.829742 -3.869281 60.974788 2.876669 -9.391210 -1.410990 0.000000 -0.000000 0.000000 -0.738468 -0.056531 13.018304 1.547411 0.945148 -1.860691 -1.109390 -0.966937 3.039701 3.649407 2.950410 -4.928471 -4.458938 -0.060760 11.000984 -30.230523 5.414457 -0.456998 -52.231607 -4.120319 7.944623 5.848660 -26.235987 8.953257 -5.381732 0.246167 -2.596797 32.853863 0.032986 -1.570370 49.728316 7.061917 13.220871 -12.639355 20.176702 -11.453787 6.967464 0.501763 -2.392906 
0.912600 0.270591 0.994506 93.870076 -0.351516 79.674973 -3.328150 2.269518 6.465487 -5.738528 -12.263715 12.238023 8.605212 9.088609 -11.886872 0.000000 -0.000000 0.000000 -3.253143 -4.296006 -12.476911 1.891094 -5.816878 57.193001 3.654013 -9.695518 -4.836458 0.000000 -0.000000 0.000000 -0.609274 -1.352752 13.906460 1.737973 0.606529 -2.064260 -0.787509 -1.525782 2.890349 3.557679 3.783046 -4.983848 -4.442364 -0.550727 11.211336 -29.702945 4.740557 -0.582843 -51.749338 -5.944836 7.852648 5.685193 -27.383276 8.439097 -4.841990 0.732685 -2.140034 33.071773 -0.246494 -1.654343 50.070619 5.943585 12.856957 -12.649396 20.392057 -11.627462 7.089794 0.549286 -2.372050 
0.948686 0.270938 0.994636 95.406646 0.266900 79.656636 -2.085956 3.275169 9.451262 -5.718880 -14.070217 11.178232 7.859644 8.588586 -13.124792 0.000000 -0.000000 0.000000 -2.923777 -4.173816 -15.364291 2.097508 -7.136634 50.745047 4.502901 -9.957461 -7.323370 0.000000 -0.000000 0.000000 -0.549410 -2.568449 14.372296 1.844850 0.245676 -2.104179 -0.403411 -2.120474 2.996275 3.526119 4.662828 -5.371408 -4.398214 -0.857506 11.259422 -29.032922 4.036874 -0.735910 -51.351534 -7.441093 8.074517 5.625978 -28.623751 8.526901 -3.666141 0.234518 -1.829418 33.326518 -0.527759 -1.805037 50.327741 5.301553 12.884894 -12.536042 20.673025 -10.788425 6.715211 0.615974 -2.038056 
0.983309 0.270679 0.992969 96.732617 0.844916 79.828166 -1.103635 3.578337 11.859828 -5.473754 -14.685812 10.543545 7.198460 8.173752 -14.322004 0.000000 -0.000000 0.000000 -2.431161 -3.742118 -17.213237 1.405161 -8.579391 41.281953 5.238202 -10.657735 -7.936195 0.000000 -0.000000 0.000000 -0.300277 -3.548228 15.196632 1.795321 -0.142978 -2.466619 -0.034538 -2.658376 2.878944 3.307765 5.062194 -5.646759 -4.012261 -0.925971 11.446928 -28.513547 3.422910 -0.857184 -50.845387 -9.286724 8.139461 5.982072 -30.127816 8.215440 -2.979376 -0.757076 -1.023644 33.270253 -0.725779 -1.880123 50.873072 4.570403 13.113890 -12.661012 20.975174 -10.410714 6.165628 0.902742 -1.917368 
1.018866 0.270721 0.988783 97.707549 0.961520 80.393346 -0.638608 3.783708 13.741312 -5.099097 -14.945240 10.288497 6.638875 7.866077 -15.912484 0.000000 -0.000000 0.000000 -1.997130 -3.665030 -17.950996 0.429781 -9.252785 28.733753 5.681269 -11.967903 -5.828183 0.000000 -0.000000 0.000000 -0.291520 -4.004111 15.467016 1.616239 -0.561382 -2.894398 0.444961 -3.164605 2.888678 2.879238 5.040083 -5.994117 -3.555544 -0.837548 11.299082 -28.064499 3.006312 -0.890790 -50.369211 -11.031920 8.019531 5.964125 -31.182475 7.780207 -1.779128 -1.276768 -1.092919 33.318198 -1.119363 -1.841832 51.177234 4.093073 13.384160 -12.711237 21.011340 -10.354784 5.289360 0.959956 -1.974150 
1.054096 0.270379 0.982087 98.809533 0.717273 81.419092 -0.296055 4.144825 14.829840 -5.070062 -16.111896 10.663272 6.364421 7.177676 -17.278221 0.000000 -0.000000 0.000000 -1.691637 -4.030455 -18.665403 -0.026258 -8.896603 15.612341 6.349079 -12.533528 -3.219348 0.000000 -0.000000 0.000000 -0.740446 -4.212626 15.151414 1.561571 -1.176838 -3.123032 0.974711 -3.687827 2.744808 2.395714 5.012793 -6.268362 -2.957004 -0.544468 11.367529 -27.492252 2.809985 -0.826726 -50.283558 -12.966982 7.865945 6.331715 -32.487302 6.566793 -0.934788 -0.938956 -1.634317 33.300979 -1.540298 -1.800328 51.554787 3.698698 13.603770 -12.923551 21.424559 -10.353834 5.084521 0.909395 -1.882514 
1.091438 0.269041 0.974470 99.666143 0.254766 82.332671 0.251914 4.781612 15.919629 -5.190463 -17.046068 11.340665 5.570627 6.024883 -18.677117 0.000000 -0.000000 0.000000 -1.359851 -4.668843 -18.904653 -0.482731 -7.567399 3.512311 8.518918 -10.472794 -4.609796 0.000000 -0.000000 0.000000 -1.389193 -4.168202 14.414296 1.527444 -1.936746 -2.910640 1.391883 -3.959065 2.694753 2.093224 5.374690 -6.486122 -2.543895 -0.767572 11.118571 -27.132451 2.567330 -1.295923 -49.970350 -13.964880 8.165452 6.552342 -33.363273 5.981406 0.276329 -1.510333 -0.999222 33.478416 -1.854631 -1.843325 51.770050 3.367943 13.652641 -13.098732 21.598272 -9.990855 4.860479 0.882978 -1.852584 
1.130127 0.267051 0.967693 100.125065 0.099089 82.986436 1.032053 4.644114 17.195118 -5.557417 -17.856272 12.486344 3.899848 5.521704 -19.235642 0.000000 -0.000000 0.000000 -1.020635 -4.370137 -20.202139 -0.911796 -8.223917 -0.045633 10.266684 -8.326706 -6.285919 0.000000 -0.000000 0.000000 -1.423823 -4.313991 14.562981 1.429272 -2.161687 -3.572085 1.510851 -4.152122 2.404979 1.960588 5.839362 -6.785330 -2.376530 -1.414813 11.782505 -26.822063 2.296425 -1.506818 -49.812413 -14.539156 8.378953 6.900891 -33.873126 5.467016 0.979404 -2.316534 -0.449450 33.658922 -2.249784 -2.123160 51.759060 2.813219 13.679119 -12.756265 21.157112 -9.338283 4.735999 1.242836 -1.905590 
1.171135 0.265539 0.962145 100.042911 0.291378 82.783743 1.884369 4.532762 18.979293 -5.990078 -19.424637 14.793777 3.203916 5.658899 -18.934630 0.000000 -0.000000 0.000000 -1.257332 -3.583720 -22.333536 0.109209 -9.387758 5.919506 8.671403 -9.588809 -5.944860 0.000000 -0.000000 0.000000 -1.222153 -5.231205 14.784730 1.454034 -1.529127 -3.317068 1.222928 -4.168449 2.436792 2.241519 6.179576 -7.294208 -2.717058 -1.184289 12.084144 -27.097947 2.123113 -1.784641 -49.239207 -15.000337 8.300236 7.416637 -34.417423 5.102020 0.769790 -2.585769 -0.569400 34.068764 -1.985557 -2.150068 51.539148 2.785193 13.644605 -12.716321 20.588372 -9.612659 4.937111 1.123922 -1.762602 
1.215987 0.263541 0.958718 100.401968 0.772903 82.624582 2.975488 4.502243 19.790944 -6.607189 -20.603197 19.577325 1.275160 4.894662 -18.027056 0.000000 -0.000000 0.000000 -0.646187 -2.576218 -22.830605 0.396569 -9.446766 11.763323 6.653133 -10.316345 -7.049163 0.000000 -0.000000 0.000000 -0.893463 -6.260512 14.342812 1.809936 -1.423335 -2.930313 1.011028 -4.109968 2.532010 2.109718 6.198651 -7.434348 -3.031004 -1.088189 12.065011 -27.518512 2.313391 -1.653541 -49.066031 -14.992255 8.177031 7.768583 -34.620467 5.072804 0.618650 -2.420441 -1.152441 34.258022 -1.648255 -2.256324 51.075656 2.467512 13.576206 -12.413525 19.965174 -9.425597 5.187699 1.158892 -1.959734 
1.265666 0.260925 0.958236 100.817055 0.743949 82.616370 3.434502 3.791799 19.453499 -7.933566 -21.282685 25.303517 -0.515997 3.931672 -12.544338 0.000000 -0.000000 0.000000 -0.037056 -1.927209 -21.804932 0.166546 -7.899979 15.175967 5.932402 -10.054472 -2.606397 0.000000 -0.000000 0.000000 -0.994818 -6.448490 12.731727 2.169432 -1.739531 -2.059009 0.801653 -4.429260 2.436737 1.974246 5.823141 -6.695781 -3.345741 -0.656618 12.570889 -28.121002 2.743335 -1.044779 -49.024030 -14.589450 8.050165 7.969737 -34.096198 4.916200 0.001320 -2.248030 -1.361773 34.447437 -2.041765 -2.083435 50.798562 2.546361 13.695250 -12.126122 19.027384 -9.220994 5.697184 0.961541 -2.175163 
1.315891 0.258966 0.961178 99.708627 1.068711 82.314254 4.088069 3.359391 18.733845 -9.512843 -19.816483 31.731604 -3.731999 3.035753 -4.049993 0.000000 -0.000000 0.000000 0.224002 -0.045994 -21.339504 1.303290 -6.144596 19.617636 4.100873 -10.483680 -0.784292 0.000000 -0.000000 0.000000 -0.754441 -6.600933 11.320718 2.612300 -1.000595 -0.949186 0.458363 -4.070004 1.970335 1.950740 5.588262 -5.665056 -3.489522 -0.261489 12.815643 -29.137640 3.361168 -0.908864 -49.138341 -13.992473 8.444761 7.955354 -32.363914 4.631221 -1.540007 -1.521548 -1.002945 34.798297 -2.530371 -1.921846 50.365700 2.710508 13.905789 -12.065510 17.933713 -9.690549 6.443892 0.468313 -2.698618 
1.364189 0.255773 0.965462 98.112684 1.415885 81.960734 4.695074 3.464006 16.121760 -10.917001 -17.278978 39.221589 -6.862949 1.742512 6.896403 0.000000 -0.000000 0.000000 1.563380 0.595598 -19.711022 1.712885 -5.756785 22.725340 0.406895 -9.487400 -2.206504 0.000000 -0.000000 0.000000 -0.329186 -6.133349 10.532972 2.915974 -0.808297 -0.426957 0.328214 -3.531921 1.366883 1.482171 5.416345 -4.189128 -3.270292 0.450337 12.340563 -29.556776 3.884453 -0.484745 -49.962424 -12.737817 8.513447 8.133772 -31.239894 4.825640 -2.892023 -0.629696 -1.390549 34.180226 -2.348385 -1.008298 50.809383 2.960189 13.339107 -12.121556 17.478410 -9.441430 7.043328 -0.106453 -3.716486 
